# xmcd
#
# Track frame offsets:
#	150
#	11812
#	25045
#	39070
#	48122
#	58960
#	68607
#	79122
#	89780
#	102280
#	116722
#	134022
#	146530
#	159407
#	170742
#	180665
#	191872
#	205675
#	216590
#	232475
#	246217
#	256997
#	269050
#	279760
#	299975
#	311012
#
# Disc length: 4312 seconds
#
# Revision: 0
# Processed by: cddbd v1.5.2PL0 Copyright (c) Steve Scherf et al.
# Submitted via: EasyCDDAExtractor 12.0.1.1
#
DISCID=9910d61a
DTITLE=Mac Wiseman - The Mac Wiseman Story CD2  (CMH 2001)
DYEAR=1900
DGENRE=Bluegrass
TTITLE0=They ll Never Take Her Love From Me
TTITLE1=I'll Sail My Ship Alone
TTITLE2=Don't Be Angry
TTITLE3=The Green Light
TTITLE4=All For The Love Of A Girl
TTITLE5=My Baby's Gone
TTITLE6=I Wonder Where You Are Tonight
TTITLE7=I Love You A Thousand Ways
TTITLE8=Flesh and Blood
TTITLE9=Me and Bobby McGee
TTITLE10=Mother, Queen Of My Heart\nMother, Queen Of My Heart\nMother, Queen O
TTITLE10=f My Heart\nMother, Queen Of My Heart\nMother, Queen Of My Heart
TTITLE11=Did She Mention My Name
TTITLE12=Cotton Jenny
TTITLE13=Rainy Day People
TTITLE14=Summertime Dream
TTITLE15=For Lovin' Me
TTITLE16=Steel Rail Blues
TTITLE17=Ribbon Of Darkness
TTITLE18=The House You Live In
TTITLE19=Early Morning Rain
TTITLE20=Old Dan's Records
TTITLE21=Sundown
TTITLE22=Poison Love
TTITLE23=Take Me Back To Renfro Valley
TTITLE24=Mountain Fever
TTITLE25='Tis Sweet To Be Remembered
EXTD=
EXTT0=
EXTT1=
EXTT2=
EXTT3=
EXTT4=
EXTT5=
EXTT6=
EXTT7=
EXTT8=
EXTT9=
EXTT10=
EXTT11=
EXTT12=
EXTT13=
EXTT14=
EXTT15=
EXTT16=
EXTT17=
EXTT18=
EXTT19=
EXTT20=
EXTT21=
EXTT22=
EXTT23=
EXTT24=
EXTT25=
PLAYORDER=
